<svg width="20" height="22" viewBox="0 0 20 22" fill="none" xmlns="http://www.w3.org/2000/svg">
<path d="M10 0C11.0608 0 12.0781 0.421427 12.8282 1.17157C13.5783 1.92172 13.9996 2.93913 13.9996 4L13.9976 4.055L14.0276 4.037C14.8702 3.54815 15.8632 3.38621 16.8174 3.582L17.0544 3.638C17.5594 3.77458 18.0325 4.00966 18.4464 4.32972C18.8603 4.64979 19.2069 5.04852 19.4662 5.503C19.9936 6.42097 20.1367 7.51032 19.8641 8.53338C19.5916 9.55644 18.9255 10.4302 18.0113 10.964L17.9433 11L18.0143 11.039C18.8956 11.5544 19.5472 12.3865 19.8361 13.3658C20.125 14.3451 20.0295 15.3977 19.5691 16.309L19.4682 16.495C19.2087 16.9501 18.8618 17.3494 18.4474 17.6698C18.033 17.9902 17.5593 18.2254 17.0535 18.3619C16.5478 18.4983 16.02 18.5334 15.5007 18.4649C14.9814 18.3964 14.4807 18.2259 14.0276 17.963L13.9976 17.943L13.9996 18C13.9996 19.0262 13.6052 20.0132 12.898 20.7568C12.1908 21.5004 11.2248 21.9437 10.2 21.995L10 22C8.93923 22 7.92191 21.5786 7.17183 20.8284C6.42175 20.0783 6.00036 19.0609 6.00036 18L6.00136 17.944L5.97236 17.963C5.12989 18.4522 4.13697 18.6145 3.18261 18.419L2.94663 18.363C2.44139 18.2265 1.96811 17.9915 1.55403 17.6714C1.13995 17.3514 0.793241 16.9526 0.53385 16.498C0.00651832 15.5804 -0.136678 14.4914 0.13548 13.4686C0.407639 12.4458 1.07308 11.5721 1.98672 11.038L2.05671 11L1.98572 10.962C1.1044 10.4466 0.452848 9.61446 0.163924 8.63519C-0.125001 7.65591 -0.0295327 6.6033 0.430859 5.692L0.53085 5.505C0.79026 5.04949 1.13731 4.64986 1.55196 4.32919C1.96661 4.00852 2.44067 3.77315 2.94675 3.63667C3.45284 3.50018 3.98095 3.46529 4.50059 3.534C5.02024 3.60272 5.52113 3.77367 5.97436 4.037L6.00036 4.055V4C6.00036 2.97376 6.39476 1.98677 7.10198 1.24319C7.80921 0.499605 8.77515 0.0563121 9.80002 0.005L10 0ZM10 8C9.20442 8 8.44143 8.31607 7.87887 8.87868C7.31631 9.44129 7.00027 10.2044 7.00027 11C7.00027 11.7956 7.31631 12.5587 7.87887 13.1213C8.44143 13.6839 9.20442 14 10 14C10.7956 14 11.5586 13.6839 12.1211 13.1213C12.6837 12.5587 12.9997 11.7956 12.9997 11C12.9997 10.2044 12.6837 9.44129 12.1211 8.87868C11.5586 8.31607 10.7956 8 10 8Z" fill="#DC4339"/>
</svg>
