<svg width="590" height="703" viewBox="0 0 590 703" fill="none" xmlns="http://www.w3.org/2000/svg">
<path d="M589.991 75.6149V46.7189C589.991 21.9036 573.398 1.61024 552.452 0.055145H552.286C551.511 0.0197885 550.736 0.00140372 549.961 0L486.56 0C483.59 0 480.722 0.408073 477.918 1.1029H475.686C473.758 1.75361 472.356 1.83082 470.641 2.30506C455.653 8.4041 444.031 32.9216 431.497 32.9216C417.191 32.9216 403.734 7.00342 388.018 2.84548C385.168 2.39329 382.308 1.96316 378.923 1.1029H340.665C338.055 2.65799 336.68 2.99989 334.845 3.79398C320.567 13.8304 308.927 36.9913 295.507 35.6127C282.087 34.234 269.58 11.1172 255.183 2.1286C252.878 1.89648 250.583 1.55061 248.302 1.09187H209.804C206.4 1.95213 203.513 2.38227 200.71 2.83446C184.947 6.99239 171.518 32.9106 157.212 32.9106C144.678 32.9106 133.056 8.39307 118.059 2.29403C116.343 1.81979 114.923 1.73155 113.014 1.09187H112.045C109.212 0.37915 106.326 0.0133052 103.431 0L40.0109 0C17.9025 0 0 20.9331 0 46.752V75.6149C0.396605 78.5486 0.488838 80.6551 0.793209 83.3021C4.7777 106.088 20.9001 123.756 20.9001 142.826C20.9001 164.63 3.89226 185.012 1.15292 209C0.830103 213.29 0.571848 217.669 0 222.863V281.03C1.04224 285.056 1.2636 287.107 1.78011 289.886C8.37481 311.625 23.5841 329.315 22.6618 349.708C21.7948 370.134 6.58548 389.214 0.682529 411.084C0.498062 414.36 0.322818 417.702 0 421.573V480.104C0.571848 485.309 0.830103 489.677 1.15292 494.011C3.89226 517.944 20.9001 538.348 20.9001 560.119C20.9001 579.177 4.76848 596.901 0.793209 619.643C0.488838 622.323 0.396605 624.429 0 627.407V656.248C0 681.052 16.5928 701.434 37.5483 702.89H37.6774C38.4891 702.956 39.227 703 40.0202 703H103.44C107.48 703 111.363 702.25 115.061 700.993C116.067 700.761 117.008 700.607 118.068 700.32C133.056 694.221 144.678 669.737 157.221 669.737C171.527 669.737 184.984 695.589 200.719 699.791C203.55 700.199 206.41 700.673 209.813 701.511H248.062C250.673 699.956 252.047 699.592 253.882 698.798C268.169 688.806 279.791 665.601 293.211 667.001C306.631 668.402 319.138 691.519 333.535 700.474C335.675 700.728 337.898 700.993 340.434 701.511H378.933C382.318 700.673 385.204 700.199 388.027 699.791C403.78 695.589 417.2 669.737 431.506 669.737C444.04 669.737 455.662 694.232 470.65 700.32C472.365 700.75 473.767 700.904 475.695 701.5H476.562C479.762 702.449 483.111 702.989 486.569 702.989H549.971C572.088 702.989 590 682.056 590 656.237V627.396C589.585 624.418 589.511 622.312 589.207 619.643C585.185 596.901 569.118 579.166 569.118 560.119C569.118 538.337 586.089 517.944 588.847 494.011C589.133 489.677 589.419 485.309 590 480.104V421.948C588.939 417.944 588.736 415.871 588.22 413.092C581.625 391.364 566.407 373.685 567.32 353.281C568.224 332.855 583.405 313.786 589.318 291.927C589.484 288.607 589.677 285.243 590 281.427V222.852C589.511 218.248 589.127 213.629 588.847 209C586.089 185.001 569.118 164.663 569.118 142.826C569.118 123.756 585.185 106.088 589.207 83.3021C589.502 80.6551 589.576 78.5486 589.991 75.6149ZM489.751 602.36H100.249V98.7758H489.751V602.36Z" fill="#EE8D1E"/>
</svg>
